<svg id="su" xmlns="http://www.w3.org/2000/svg" xmlns:xlink="http://www.w3.org/1999/xlink" width="18.312" height="18.312" viewBox="0 0 18.312 18.312">
  <defs>
    <clipPath id="clip-path">
      <path id="Clip_2346" data-name="Clip 2346" d="M0,9.156a9.156,9.156,0,0,0,9.156,9.156h0a9.156,9.156,0,0,0,9.156-9.156h0A9.156,9.156,0,0,0,9.156,0h0A9.156,9.156,0,0,0,0,9.156Z" fill="none"/>
    </clipPath>
  </defs>
  <path id="Clip_2346-2" data-name="Clip 2346" d="M0,9.156a9.156,9.156,0,0,0,9.156,9.156h0a9.156,9.156,0,0,0,9.156-9.156h0A9.156,9.156,0,0,0,9.156,0h0A9.156,9.156,0,0,0,0,9.156Z" transform="translate(0 0)" fill="none"/>
  <g id="Group_2354" data-name="Group 2354" transform="translate(0 0)" clip-path="url(#clip-path)">
    <path id="Fill_2345" data-name="Fill 2345" d="M0,19.022H30.988V0H0Z" transform="translate(-6.338 -0.355)" fill="#006b35"/>
    <path id="Fill_2347" data-name="Fill 2347" d="M1.133,1.222c-.006.222.021.484.135.378s0-.635,0-.635c-.047-.26-.085-.375-.112-.6S1.2-.019,1.3,0c.206.047.233.432.252.671a2.09,2.09,0,0,0,.112.689c.082.136.186.032.086-.135a1.1,1.1,0,0,1-.1-.742c.07-.214.247-.036.247-.036a1.029,1.029,0,0,1,.147.793c.334.306.38.271.458.271s.046-.278-.024-.343-.31-.463-.24-.677.309-.2.457.028c.186.264.062.326-.047.226a1.778,1.778,0,0,1,.186.88c-.085.243-.577.468-.774.286s-.319-.078-.319.043a5.632,5.632,0,0,1,.047,1.013c-.085.556-.3.471-.3.471S1.443,2.468,1.4,2.3s-.151-.139-.376-.21S.861,1.476.861,1.476s.05-.368-.039-.449c-.139,0-.131.249-.131.407s0,.585-.24.585-.395-.2-.433-.492a4.945,4.945,0,0,1,0-.793s.1-.185.163.15.123.7.224.7.14-.449.2-.634S.781.5.985.541s.152.507.148.681" transform="translate(1.449 4.91)" fill="#fff"/>
    <path id="Fill_2348" data-name="Fill 2348" d="M14.2,5.127c-.069,0-.114-.015-.132-.046a.092.092,0,0,1,0-.082.562.562,0,0,0,.053-.059.384.384,0,0,1,.084-.083,1.5,1.5,0,0,1,.22-.107,1.753,1.753,0,0,0,.2-.094,1.159,1.159,0,0,0,.465-.556,4.042,4.042,0,0,0-.015-.5c-.008-.13-.016-.253-.016-.331s-.047-.587-.078-.856c-.007-.062-.014-.122-.02-.181-.028-.249-.054-.484-.1-.789-.006-.038-.015-.086-.024-.139a2.842,2.842,0,0,1-.068-.989l.108-.2a.338.338,0,0,1,.137.139c.011.017.022.033.033.047.04.053.079.107.117.159l.07.1a.719.719,0,0,1,.055.1A.477.477,0,0,0,15.37.79a.183.183,0,0,1-.015.071l-.077.007L15.2.876V.89h-.016a1.808,1.808,0,0,0,.078.442,1.707,1.707,0,0,1,.042.262,1.7,1.7,0,0,0,.037.237c0,.084.014.157.023.228s.017.133.022.21a7.506,7.506,0,0,1,.033.963c0,.077,0,.152,0,.226q0,.065,0,.13a2.016,2.016,0,0,1-.171,1.083,1.07,1.07,0,0,1-.573.386,1.446,1.446,0,0,1-.341.057A.793.793,0,0,1,14.2,5.127ZM1.683,5.049H1.623a.806.806,0,0,1-.831-.7,1.183,1.183,0,0,1,.1-.658c.012-.024.029-.061.065-.066h0c.017,0,.063.012.067.026.017.077.027.161.038.251.028.233.057.473.21.575a.9.9,0,0,0,.511.143,1.533,1.533,0,0,0,1.085-.471,1.666,1.666,0,0,0,.264-.5c.013-.067.03-.135.047-.2s.034-.133.046-.2a.339.339,0,0,0-.032-.185c-.114.014-.152.2-.185.364A1.046,1.046,0,0,1,2.96,3.6a1.34,1.34,0,0,1-.775.742A1.035,1.035,0,0,1,1.86,4.4a.714.714,0,0,1-.641-.378.949.949,0,0,1,.037-.95h.077a2.044,2.044,0,0,1,.043.262c.026.218.056.465.205.551a.391.391,0,0,0,.2.043,1.033,1.033,0,0,0,.316-.058.98.98,0,0,0,.728-.742.79.79,0,0,0-.118.039l-.048.03a.574.574,0,0,1-.081.047.431.431,0,0,1-.174.035.531.531,0,0,1-.1-.01.277.277,0,0,1-.228-.32.689.689,0,0,1,.139-.484.515.515,0,0,1,.336-.17A.3.3,0,0,1,2.6,2.3a.71.71,0,0,1,.4.3.17.17,0,0,0,.135-.063.364.364,0,0,0,.031-.273L3.14,2.131a4.852,4.852,0,0,1-.115-.546C3.017,1.525,3.009,1.464,3,1.4A4.569,4.569,0,0,0,2.9.79a1.887,1.887,0,0,1-.06-.359C2.828.25,3.067.205,3.069.2L3.1.2a.186.186,0,0,1,.131.062A1.025,1.025,0,0,1,3.433.7l.008.028a.959.959,0,0,0,.032.1l.006.013c.018.041.051.116.031.161a.054.054,0,0,1-.034.03.081.081,0,0,1-.025,0A.226.226,0,0,1,3.4,1.035a.25.25,0,0,0-.048-.007.071.071,0,0,0-.038.01c-.053.033-.029.115-.015.164l0,.007c.021.078.042.155.058.234.038.2.058.4.078.6.01.1.021.205.033.307l.009.006.007.008a.4.4,0,0,0,.065-.019.306.306,0,0,1,.1-.023.1.1,0,0,1,.054.015c.051.024.055.075.06.129a.194.194,0,0,0,.033.113.147.147,0,0,0,.089.026.214.214,0,0,0,.127-.04.265.265,0,0,0,.076-.113.394.394,0,0,1,.048-.087l.019-.013.089-.058h.009a.137.137,0,0,1,.069.014c.063.021.089.083.114.143.008.02.016.039.025.056.118,0,.122-.047.127-.106a.222.222,0,0,1,.029-.107c.021-.048.071-.063.124-.078a.325.325,0,0,0,.091-.036H4.85v0a1.159,1.159,0,0,1-.167.712.277.277,0,0,1-.2.083.451.451,0,0,1-.109-.015.405.405,0,0,1-.094-.041.442.442,0,0,0-.108-.045.621.621,0,0,1-.422.2.248.248,0,0,1-.214-.1.226.226,0,0,0-.05.01l-.012,0c0,.078.012.159.021.237a1.861,1.861,0,0,1,.01.491,1.683,1.683,0,0,1-1.363,1.27A1.753,1.753,0,0,1,1.683,5.049Zm.8-2.367H2.474a.076.076,0,0,0-.024.008.177.177,0,0,0-.089.111.082.082,0,0,0,.018.071.12.12,0,0,0,.078.033.409.409,0,0,0,.057,0c.057,0,.09-.018.1-.057a.133.133,0,0,0-.021-.133A.18.18,0,0,0,2.487,2.682ZM11.82,5.047a.535.535,0,0,1-.222-.066.894.894,0,0,1-.265-.227.925.925,0,0,1,.009-1.061l0,0a.248.248,0,0,1,0,.083,1.139,1.139,0,0,0,.148.712l.02.023c.041.048.1.113.17.113a.146.146,0,0,0,.074-.022c.1-.034.15-.165.191-.28.014-.038.026-.074.041-.1a2.5,2.5,0,0,1,.279-.485c.1-.122.17-.128.184-.128h.028c.114,0,.175.092.268.232a1.15,1.15,0,0,0,.217.24.263.263,0,0,0,.064.008.173.173,0,0,0,.091-.022A.837.837,0,0,0,13.3,3.4c-.027-.443-.077-1.2-.082-1.283,0-.069,0-.133-.007-.2s-.005-.135-.007-.206a.586.586,0,0,0-.133-.168c-.026-.026-.051-.051-.07-.074l-.126-.161,0,0c-.064-.082-.129-.165-.2-.25a1.617,1.617,0,0,0-.116-.125A1.145,1.145,0,0,1,12.4.747a.98.98,0,0,1,0-.642c.081,0,.309.227.445.362.036.036.065.064.082.08.049.046.071.082.063.1s-.016.015-.035.015a.162.162,0,0,0-.09.026V.719A.647.647,0,0,1,12.937.8a.632.632,0,0,0,.08.088h0a.269.269,0,0,0,0-.089V.792C13.012.7,13,.609,12.988.52c-.005-.039-.01-.077-.015-.114a.321.321,0,0,1,.021-.172c.018-.038.075-.117.14-.117l.016,0c.081.016.129.126.168.214a.817.817,0,0,0,.039.081c.1.156.177.287.263.42,0,.01,0,.019,0,.027a.1.1,0,0,1-.03.087h-.01A.124.124,0,0,1,13.5.919.341.341,0,0,0,13.45.89a.634.634,0,0,0,.016.286c.005.095.01.2.015.314.15.2.44.57.451.571a2.6,2.6,0,0,0-.058-.352l-.017-.083-.048-.235V1.384c-.033-.162-.067-.329-.1-.495a2.582,2.582,0,0,1-.051-.382l0-.032a.345.345,0,0,1,.061-.269.27.27,0,0,1,.09-.072.105.105,0,0,1,.051-.014c.129,0,.266.254.406.754L14.271.9c0,.045,0,.077-.018.094s-.037.02-.079.02h-.026v.015h-.017a2.046,2.046,0,0,0,.093.571,2.329,2.329,0,0,1,.058.331,2.391,2.391,0,0,0,.05.3l.061.5.257.322c.091.122.209.283.318.453a.974.974,0,0,1,.015.656l0,.014a.015.015,0,0,1,0,.008l-.005.006a1.881,1.881,0,0,0-.132-.214L14.8,3.916c-.114-.173-.338-.535-.34-.543a.811.811,0,0,0-.005.1,3.78,3.78,0,0,1-.028.414.944.944,0,0,1-.264.34l-.061.059h-.015c0-.222-.009-.415-.017-.638,0-.124-.01-.255-.015-.4q-.009-.161-.02-.323l-.01-.162c-.117-.154-.233-.31-.341-.457h-.032q.009.593.015,1.184c0,.05,0,.1,0,.153a1.426,1.426,0,0,1-.034.462.726.726,0,0,1-.153.258.491.491,0,0,1-.368.173.606.606,0,0,1-.253-.061,2.338,2.338,0,0,1-.3-.228A.237.237,0,0,0,12.4,4.17a.127.127,0,0,0-.065.016.438.438,0,0,0-.143.322,1.156,1.156,0,0,1-.043.192.583.583,0,0,1-.2.308A.205.205,0,0,1,11.82,5.047ZM4.968,5.025h0A.73.73,0,0,1,4.555,4.9a.588.588,0,0,1-.174-.235c-.013-.026-.027-.053-.042-.079-.228.07-.451.155-.666.237l-.016.006-.435.122-.076.021H3.122a.214.214,0,0,1-.1-.015.02.02,0,0,1-.005-.016c.006-.062.218-.211.283-.255.14-.092.3-.176.447-.257.093-.05.19-.1.282-.156l.037-.022c.1-.058.2-.119.3-.177a.172.172,0,0,0,.075-.137.53.53,0,0,1,.014-.059c.008-.024.016-.048.023-.072s.023-.076.038-.112.1-.2.175-.2a.678.678,0,0,1-.02.1c-.022.088-.047.187.007.253a.777.777,0,0,0,.178-.123l.006-.005c.04-.034.086-.069.135-.106a1.034,1.034,0,0,0,.376-.394.342.342,0,0,0,.011-.223.66.66,0,0,0-.208-.277.418.418,0,0,1-.149-.309A.325.325,0,0,1,5.1,2.169.211.211,0,0,1,5.261,2.1a.376.376,0,0,1,.225.091A.622.622,0,0,1,5.7,2.6a.181.181,0,0,1-.108-.029H5.516a1.34,1.34,0,0,0,.072.169,1.323,1.323,0,0,1,.1.244.815.815,0,0,1-.138.657,2.118,2.118,0,0,1-.822.7.228.228,0,0,0,.069.18.6.6,0,0,1,.039.048,1.943,1.943,0,0,0,.2.013.519.519,0,0,0,.189-.027,2.171,2.171,0,0,0,.884-.885,1.029,1.029,0,0,0,.014-.4c-.026-.112-.055-.226-.082-.336l-.026-.106a.609.609,0,0,0-.074-.156c-.013-.022-.025-.043-.035-.063a1.641,1.641,0,0,1-.094-.229.418.418,0,0,1,.016-.409.144.144,0,0,1,.1-.058c.105,0,.186.173.229.266l.01.021a4.059,4.059,0,0,1,.232.628,1.09,1.09,0,0,1,.031.207.608.608,0,0,0,.062.264c.047-.012.056-.035.069-.069l.007-.017a.322.322,0,0,1,.076-.1,1.859,1.859,0,0,1,.809-.367.832.832,0,0,1,.14-.021A.676.676,0,0,0,7.732,2.7a1.85,1.85,0,0,0,.023-.22.7.7,0,0,1,.086-.366.428.428,0,0,1,.351-.182.659.659,0,0,1,.438.2.516.516,0,0,1,.017.543,1.107,1.107,0,0,1-.977.471l-.006.007-.009.006a.184.184,0,0,0,.011.046l0,.011.453.006.648.009c.04,0,.086,0,.129-.007s.085-.006.129-.006a.366.366,0,0,1,.221.055.437.437,0,0,0-.163.287A.647.647,0,0,1,9,3.773a2.215,2.215,0,0,1-.717.164c-.124.017-.241.033-.322.05l-.073.007-.235.021s-.191.118-.208.215.167.224.3.278.233.109.185.249c-.027.078-.1.116-.214.116a.926.926,0,0,1-.129-.011,1.932,1.932,0,0,1-.753-.249A1.621,1.621,0,0,1,6.569,4.4c-.01-.009-.047-.056-.087-.105a1.648,1.648,0,0,0-.13-.153.427.427,0,0,0-.266.22c-.02.029-.038.056-.058.08A1.572,1.572,0,0,1,4.968,5.025Zm1.7-1.47H6.663a.1.1,0,0,1-.052.02.162.162,0,0,0-.041.012c-.066.313.133.455.324.592.051.036.1.07.141.107h0a.177.177,0,0,0,.09-.014.235.235,0,0,0,.012-.147.335.335,0,0,1,0-.139c.035-.1.161-.15.272-.194.042-.016.081-.032.115-.049,0-.059-.007-.089-.046-.114A4.866,4.866,0,0,0,6.668,3.555Zm1.4-1.167H8.042a.01.01,0,0,0-.008,0c-.012.019.01.088.014.1a.212.212,0,0,0,.115.077l.031,0a.18.18,0,0,0,.093-.017.01.01,0,0,0,0-.007C8.283,2.437,8.216,2.389,8.072,2.389ZM.32,4.988a.289.289,0,0,1-.3-.206,1.254,1.254,0,0,1,.229-.966s.015.144.013.16c0,.05-.013.1-.021.149,0,.03-.01.061-.014.091a.5.5,0,0,0,.055.4.375.375,0,0,1,.2-.121.051.051,0,0,1,.045.023c.04.059,0,.217-.023.289-.017.044-.08.172-.147.181A.317.317,0,0,1,.32,4.988ZM8.6,4.815H8.578c-.061,0-.109,0-.124-.062a.243.243,0,0,1,0-.076.3.3,0,0,0,0-.06v0c0-.025-.007-.057-.031-.068a.05.05,0,0,0-.021,0,.184.184,0,0,0-.051.011.192.192,0,0,1-.053.011.052.052,0,0,1-.022,0,.062.062,0,0,1-.031-.025.113.113,0,0,0-.015-.018.017.017,0,0,1,0-.016c.009-.057.2-.193.255-.222l.011-.006.021,0a.327.327,0,0,1,.113.032h0a.332.332,0,0,1-.019.089c-.018.057-.037.116.006.167A.282.282,0,0,1,8.63,4.6a.659.659,0,0,0,.164-.047A.7.7,0,0,1,9.016,4.5a.149.149,0,0,1,.079.02h.032l0,.013a.02.02,0,0,0,.005.009l.006.007v.005a.14.14,0,0,1-.015.08.757.757,0,0,1-.259.091.807.807,0,0,0-.269.095Zm.729-.272h0c0-.126.006-.259.011-.387.008-.215.017-.437,0-.639-.009-.157-.015-.294-.015-.486l-.031-.5-.082-.7L9.049,1.6c-.072-.1-.143-.194-.212-.289-.1-.142-.208-.289-.32-.427C8.484.846,8.445.806,8.4.764A.979.979,0,0,1,8.2.49.7.7,0,0,1,8.165.182c0-.017,0-.033,0-.05a.373.373,0,0,0,.061-.07,1.247,1.247,0,0,1,.72.493c0-.013,0-.03,0-.049a.571.571,0,0,1,.01-.2A.368.368,0,0,1,9.081.119l.007,0L9.1.11l.014,0c.051.073.11.144.168.214A2.435,2.435,0,0,1,9.53.663a1.088,1.088,0,0,1,.1.268c0,.006.027.06.013.082a.022.022,0,0,1-.02.01A.191.191,0,0,1,9.535.986a.021.021,0,0,0-.011,0,.01.01,0,0,0-.008,0c-.012.013-.007.061,0,.092l0,.017a2.189,2.189,0,0,0,.048.291.815.815,0,0,1,.014.158.724.724,0,0,0,.019.177.563.563,0,0,0,.131.21l.032.038a5.277,5.277,0,0,1,.473.709c.077.131.158.266.243.4A1.088,1.088,0,0,1,10.6,3.4l0,.011c.037.143.1.383-.018.5a.046.046,0,0,1-.031.016c-.038,0-.066-.07-.087-.121-.006-.016-.012-.03-.017-.039-.022-.041-.042-.083-.061-.124s-.032-.068-.049-.1A4.43,4.43,0,0,0,10.07,3.1a4.792,4.792,0,0,1-.254-.408c-.02-.039-.041-.073-.062-.106a.367.367,0,0,0-.027-.032.193.193,0,0,1-.045-.064h0a.013.013,0,0,0-.01,0c-.024.026-.012.15-.005.217,0,.016,0,.027,0,.034l.006.1c0,.067.008.134.011.2.009.2.017.4.017.6,0,.044,0,.091,0,.14a1.112,1.112,0,0,1-.022.373c-.12.368-.346.385-.355.385Zm2.226-.2a.017.017,0,0,1-.011,0,11.008,11.008,0,0,0-.263-2.412c-.023-.1-.041-.206-.059-.305a4.126,4.126,0,0,0-.1-.451c-.082-.281-.087-.915.123-1.042a3.517,3.517,0,0,0,.264.471c.018.026.038.052.06.079a.492.492,0,0,1,.141.292h-.028A.375.375,0,0,0,11.513,1a2.411,2.411,0,0,0,.092.556,2.471,2.471,0,0,1,.057.373,2.409,2.409,0,0,0,.051.341q.035.292.07.585t.07.585a1.633,1.633,0,0,1-.085.653C11.668,4.295,11.587,4.348,11.554,4.348ZM4.186,3.855a.018.018,0,0,1-.017-.011c.007-.245,0-.389-.186-.5a.118.118,0,0,1,0-.094A.1.1,0,0,1,4.057,3.2h.015a.294.294,0,0,1,.221.173.418.418,0,0,1-.062.454A.076.076,0,0,1,4.186,3.855ZM12.969,3.7h0a.194.194,0,0,1-.059-.013h0c0-.028,0-.053,0-.078a.863.863,0,0,0-.126-.536c-.035-.14-.006-.168.058-.228a.1.1,0,0,1,.049-.013.147.147,0,0,1,.106.055c.056.062.142.228.1.643a.265.265,0,0,1-.123.17ZM.151,3.271v0a1.086,1.086,0,0,1,.133-.23L.313,3a1.34,1.34,0,0,1,.473-.363,1.055,1.055,0,0,1,.282-.109.549.549,0,0,1,.109-.012.324.324,0,0,1,.172.044.162.162,0,0,1,.059.074.285.285,0,0,0,.033.055.008.008,0,0,1,0,.007,1.521,1.521,0,0,1-.4.177l-.033.012C.906,2.93.8,2.984.7,3.036c-.081.042-.165.084-.25.123a1.146,1.146,0,0,1-.133.048.946.946,0,0,0-.165.063ZM12.21,3.116a.013.013,0,0,1-.01,0c-.027-.028-.02-.178-.02-.179,0-.075.128-.149.222-.2.027-.015.05-.029.066-.04l.051-.037a2.666,2.666,0,0,1,.328-.216l.024-.013a.717.717,0,0,0,.086-.051l.017-.016a.088.088,0,0,1,.054-.033.04.04,0,0,1,.019.005c.026.013.027.058.028.085v.007a.319.319,0,0,1-.156.279A3.926,3.926,0,0,1,12.21,3.116Zm-5.083-.61a.278.278,0,0,1-.169-.047.194.194,0,0,1-.113-.132.179.179,0,0,1,.021-.168l.006-.017.009-.026a.109.109,0,0,1,.1.044.091.091,0,0,1,.011.026c.006.018.013.039.033.043h.006c.026,0,.041-.032.05-.056s.006-.019.009-.027.009-.03.013-.03c.074.007.088.049.105.1a.368.368,0,0,0,.019.047h.032c.007-.018.012-.036.018-.053a.548.548,0,0,1,.042-.1h.064l.012.019a.127.127,0,0,1,.018.038.3.3,0,0,1,.016.215C7.393,2.456,7.246,2.507,7.126,2.507Zm5.47-.189h0a1.227,1.227,0,0,1-.234-.112.828.828,0,0,1-.335-.319.249.249,0,0,1,0-.222.155.155,0,0,1,.134-.074h.007a.12.12,0,0,1,.1.062l.019.023a.112.112,0,0,0,.055.041c.008,0,.033,0,.054-.007H12.4l.04-.005a.261.261,0,0,1,0-.241.164.164,0,0,1,.131-.088h.016c.069,0,.128.046.176.136a.529.529,0,0,1,.049.154c.006.034,0,.055-.006.067a.044.044,0,0,1-.036.013.437.437,0,0,1-.077-.012.3.3,0,0,1-.063.043l-.032.542ZM6.507,1.992h0a.447.447,0,0,1-.32-.139.533.533,0,0,1-.149-.383.83.83,0,0,0,0-.1c0-.024,0-.048,0-.073s0-.039,0-.058a.67.67,0,0,0-.013-.145c-.109.008-.126.112-.14.2a.558.558,0,0,1-.017.081l-.018.056a1.088,1.088,0,0,1-.153.343.177.177,0,0,1-.146.069.461.461,0,0,1-.216-.071.638.638,0,0,1-.2-.226,1.141,1.141,0,0,1-.1-.5A1.843,1.843,0,0,1,5.082.519a.182.182,0,0,1,.056.013l.006,0c.035.011.059.176.068.239l0,.018c0,.01,0,.026.005.048.017.165.063.6.233.6a.12.12,0,0,0,.046-.01c.087-.036.1-.148.118-.246a.641.641,0,0,1,.022-.109,2.2,2.2,0,0,1,.22-.442l0-.007c.061-.093.143-.221.274-.221h.013a.175.175,0,0,1,.13.058c.079.092.062.282.045.465s-.034.362.043.445a.214.214,0,0,0,.136.114.508.508,0,0,1,.083.043.354.354,0,0,0,.282-.118.705.705,0,0,0,.1-.523,1.27,1.27,0,0,0-.06-.214A.922.922,0,0,1,6.846.384.4.4,0,0,1,6.922.175L6.943.14A.521.521,0,0,1,7.035.006H7.1l.011.023a1.677,1.677,0,0,1,.144.348,1.787,1.787,0,0,1,.035.416,1.432,1.432,0,0,0,.043.426c.006.02.012.04.018.061.028.1.054.194.151.225a.216.216,0,0,0,.065.011.28.28,0,0,0,.18-.087.417.417,0,0,1,.049-.038A1,1,0,0,0,7.655.8C7.642.784,7.624.763,7.606.741A.557.557,0,0,1,7.53.633.48.48,0,0,1,7.562.248c.03-.086.114-.13.247-.13l.048,0,.02.018c.1.09.361.329.275.453-.018.035-.077.045-.128.054a.353.353,0,0,0-.074.018,2.319,2.319,0,0,0,.217.67.683.683,0,0,0,.159.023.344.344,0,0,0,.1-.014A.365.365,0,0,0,8.5,1.3a.283.283,0,0,1,.1-.045h.011a.047.047,0,0,1,.041.019.2.2,0,0,1,0,.15.522.522,0,0,1-.118.181l-.03.032a.255.255,0,0,1-.135.1l-.027,0a.072.072,0,0,1-.072-.034A.441.441,0,0,1,8.3,1.572.2.2,0,0,0,8.3,1.547l-.007,0a.161.161,0,0,1-.038-.025c-.055,0-.066.006-.093.029a.941.941,0,0,0-.189.233c-.005.008-.01.019-.016.03a.179.179,0,0,1-.038.058.572.572,0,0,1-.254.075l-.036,0A.348.348,0,0,1,7.458,1.9a.6.6,0,0,1-.145-.132c0-.006-.015-.02-.026-.037-.027-.04-.065-.1-.08-.1a.406.406,0,0,0-.249.135,1.436,1.436,0,0,1-.178.136A.487.487,0,0,1,6.507,1.992Zm-2-.122a.148.148,0,0,1-.11-.042A.27.27,0,0,1,4.309,1.6a.35.35,0,0,1,.059-.12l0-.006c.018-.03.066-.11.093-.115l.016,0a.054.054,0,0,0,.031-.011l.034.007.028.006a.141.141,0,0,1-.031.1.359.359,0,0,0,.046.228.219.219,0,0,0,.134-.045.1.1,0,0,0,.015-.016A.069.069,0,0,1,4.763,1.6h.054c-.039.135-.1.216-.184.241A.387.387,0,0,1,4.511,1.87Zm9.99-.392h0a1.022,1.022,0,0,1-.016-.13c0-.017,0-.035.006-.052A.4.4,0,0,0,14.5,1.2a.363.363,0,0,0-.071-.168.76.76,0,0,1-.047-.081C14.371.936,14.36.918,14.35.9a.349.349,0,0,1-.063-.192A.109.109,0,0,1,14.4.616h.012a.188.188,0,0,1,.127.056.421.421,0,0,1,.093.217l.008.037a.68.68,0,0,1,.014.333.464.464,0,0,1-.061.132.407.407,0,0,1-.088.087ZM3.881,1.458a.625.625,0,0,1-.224-.026l-.009-.006-.008-.009A4.607,4.607,0,0,0,4.089,1.1l.1-.078C4.218,1,4.249.977,4.279.956A1.345,1.345,0,0,0,4.42.847L4.455.818c.046-.037.1-.083.109-.131S4.525.61,4.483.584A.292.292,0,0,1,4.43.546a.206.206,0,0,1-.036-.2A.208.208,0,0,1,4.507.2L4.525.191A.176.176,0,0,1,4.556.176a.164.164,0,0,0,.03-.015h0a.341.341,0,0,1,.26.086A.223.223,0,0,1,4.9.429a.18.18,0,0,1-.072.109l0,0C4.794.566,4.777.583,4.777.6s.012.029.041.054a.092.092,0,0,1,.042.069c0,.041-.047.076-.092.111A.622.622,0,0,0,4.71.883a2.21,2.21,0,0,0-.157.183.946.946,0,0,1-.445.367A.64.64,0,0,1,3.881,1.458Zm.738-1.1A.044.044,0,0,0,4.594.37a.087.087,0,0,0-.027.07.129.129,0,0,0,.036.1.1.1,0,0,0,.059.025.063.063,0,0,0,.06-.055A.122.122,0,0,0,4.653.372.073.073,0,0,0,4.619.362ZM9.98,1h0l0-.054c0-.076.007-.154.012-.23a.524.524,0,0,0-.13-.193A.787.787,0,0,1,9.778.42.129.129,0,0,1,9.762.376.1.1,0,0,0,9.746.333.2.2,0,0,1,9.772.244L9.778.233A.207.207,0,0,0,9.839.2a.291.291,0,0,1,.28.173.652.652,0,0,1-.079.612l-.012,0A.2.2,0,0,1,9.981,1ZM.638.788h0A.335.335,0,0,1,.625.644.347.347,0,0,0,.612.5.4.4,0,0,0,.523.375.384.384,0,0,1,.442.269.18.18,0,0,1,.459.143.043.043,0,0,1,.5.119.217.217,0,0,1,.635.148.333.333,0,0,1,.77.461C.769.473.755.75.638.787Zm5.9-.125h0a.188.188,0,0,1-.1-.025l-.01,0A.83.83,0,0,1,6.6.033h.046l.006.008a.06.06,0,0,0,.025.022.64.64,0,0,1-.068.481c-.015.037-.03.072-.041.1L6.554.653a.016.016,0,0,0-.009.005l-.006,0ZM5.479.556A.116.116,0,0,1,5.381.5C5.307.39,5.41.2,5.431.163A.34.34,0,0,1,5.54.048.334.334,0,0,1,5.659,0a.026.026,0,0,1,.013,0,.028.028,0,0,1,.013.018.16.16,0,0,1-.036.1A.477.477,0,0,1,5.58.2L5.571.214a.094.094,0,0,0-.036.1c.012.06.042.06.08.06H5.63a.184.184,0,0,1,.04,0A.229.229,0,0,1,5.479.556Zm-3.35,0A.277.277,0,0,1,1.961.508.2.2,0,0,1,1.847.375a.179.179,0,0,1,.02-.167L1.883.166c.082,0,.092.032.107.074a.359.359,0,0,0,.016.04h.01A.092.092,0,0,0,2.069.266a.252.252,0,0,0,.03-.1c.075.007.09.049.107.1a.389.389,0,0,0,.018.044h.031c.007-.019.014-.038.02-.057a.548.548,0,0,1,.041-.1h.063l.011.017a.138.138,0,0,1,.02.04.311.311,0,0,1,.016.214C2.4.5,2.249.555,2.13.555Z" transform="translate(1.365 4.725)" fill="#fff"/>
    <path id="Fill_2349" data-name="Fill 2349" d="M.2.238S0,.157.071.024A.7.7,0,0,1,.268,0c.124,0,.2.057.15.143s-.1.15.017.15.2.025.086.131S.087.657.019.557.106.393.16.343A.1.1,0,0,0,.2.238" transform="translate(14.955 9.173)" fill="#fff"/>
    <path id="Fill_2350" data-name="Fill 2350" d="M.14.195s.005.09.051.09S.248.268.259.195.366.145.366.21s.041.1.071.075c0,0-.013-.15.084-.141S.609.316.589.4.46.554.305.554.039.516.006.368.094.085.14.195" transform="translate(11.098 5.872)" fill="#fff"/>
    <path id="Fill_2351" data-name="Fill 2351" d="M.325.268.462.256.527.537S.325.321.325.268" transform="translate(9.898 5.192)" fill="#fff"/>
    <path id="Fill_2352" data-name="Fill 2352" d="M.9.9A1.365,1.365,0,0,1,.929.189c.125-.224.078-.277.238-.009s.372.632.1.656a4.648,4.648,0,0,0,.124,1.032,13.384,13.384,0,0,1,.1,1.874A1.844,1.844,0,0,1,.748,4.8c-.323.211-.667.162-.748-.1a9.171,9.171,0,0,0,.82-.513c.32-.252.367-.286.367-.562s-.154-1.655-.154-1.655Z" transform="translate(10.905 4.883)" fill="#fff"/>
    <path id="Fill_2353" data-name="Fill 2353" d="M11.062,1.379h0a.217.217,0,0,1-.216-.133l-1.157.005c-.018.025-.082.1-.154.1a.133.133,0,0,1-.11-.079A.487.487,0,0,1,9.384.823H9.317c-.559,0-2.513.007-2.9.009H2.68l-1.457,0s-.032,0-.083,0A1.429,1.429,0,0,1,0,.3H0C.011.3,1.31.367,2.179.367c.834,0,3.362.013,3.47.014L9.41.39l0,0c-.038-.043-.123-.154-.1-.249C9.33.074,9.4.027,9.508,0a.136.136,0,0,0,.024.1A.026.026,0,0,0,9.549.1c.01,0,.1,0,.133.062s.007.127-.06.228c.317.017.527.03.666.039s.217.014.263.014.164-.014.265-.027c.083-.01.161-.02.19-.02a.446.446,0,0,1,.377.433c.039.351-.037.508-.263.542A.388.388,0,0,1,11.062,1.379ZM10.29.972a.234.234,0,0,1,.158.07h.335a.168.168,0,0,0,.035-.1.1.1,0,0,0-.035-.075c-.261,0-1.076-.014-1.11-.015,0,0-.078.114,0,.186h.46A.237.237,0,0,1,10.29.972Z" transform="translate(3.484 12.717)" fill="#fff"/>
  </g>
</svg>
